<mxfile host="app.diagrams.net" modified="2021-08-27T10:32:53.819Z" agent="5.0 (Windows NT 10.0; Win64; x64) AppleWebKit/537.36 (KHTML, like Gecko) Chrome/92.0.4515.159 Safari/537.36" etag="QyUoxz7OsLJDJVKw-qlE" version="15.0.2" type="github">
  <diagram id="dVV5Y5u8KtuGquqnAUhd" name="Page-1">
    <mxGraphModel dx="1021" dy="567" grid="1" gridSize="10" guides="1" tooltips="1" connect="1" arrows="1" fold="1" page="1" pageScale="1" pageWidth="850" pageHeight="1100" math="0" shadow="0">
      <root>
        <mxCell id="0" />
        <mxCell id="1" parent="0" />
        <mxCell id="RnDzqMJOInkUyzBkwdKR-2" style="edgeStyle=orthogonalEdgeStyle;rounded=0;orthogonalLoop=1;jettySize=auto;html=1;exitX=0.5;exitY=1;exitDx=0;exitDy=0;" edge="1" parent="1" source="RnDzqMJOInkUyzBkwdKR-1">
          <mxGeometry relative="1" as="geometry">
            <mxPoint x="400" y="130" as="targetPoint" />
          </mxGeometry>
        </mxCell>
        <mxCell id="RnDzqMJOInkUyzBkwdKR-1" value="Paitent Portal" style="rounded=1;whiteSpace=wrap;html=1;" vertex="1" parent="1">
          <mxGeometry x="340" y="20" width="120" height="60" as="geometry" />
        </mxCell>
        <mxCell id="RnDzqMJOInkUyzBkwdKR-4" style="edgeStyle=orthogonalEdgeStyle;rounded=0;orthogonalLoop=1;jettySize=auto;html=1;" edge="1" parent="1" target="RnDzqMJOInkUyzBkwdKR-9">
          <mxGeometry relative="1" as="geometry">
            <mxPoint x="30" y="240" as="targetPoint" />
            <mxPoint x="1264.7058823529412" y="210" as="sourcePoint" />
            <Array as="points">
              <mxPoint x="780" y="210" />
              <mxPoint x="80" y="210" />
            </Array>
          </mxGeometry>
        </mxCell>
        <mxCell id="RnDzqMJOInkUyzBkwdKR-3" value="appRoute" style="rounded=1;whiteSpace=wrap;html=1;" vertex="1" parent="1">
          <mxGeometry x="340" y="130" width="120" height="60" as="geometry" />
        </mxCell>
        <mxCell id="RnDzqMJOInkUyzBkwdKR-9" value="Registration" style="rounded=1;whiteSpace=wrap;html=1;" vertex="1" parent="1">
          <mxGeometry x="20" y="240" width="120" height="60" as="geometry" />
        </mxCell>
        <mxCell id="RnDzqMJOInkUyzBkwdKR-11" value="" style="edgeStyle=orthogonalEdgeStyle;rounded=0;orthogonalLoop=1;jettySize=auto;html=1;" edge="1" parent="1" source="RnDzqMJOInkUyzBkwdKR-10" target="RnDzqMJOInkUyzBkwdKR-3">
          <mxGeometry relative="1" as="geometry" />
        </mxCell>
        <mxCell id="RnDzqMJOInkUyzBkwdKR-39" value="" style="edgeStyle=orthogonalEdgeStyle;curved=0;rounded=1;sketch=0;orthogonalLoop=1;jettySize=auto;html=1;" edge="1" parent="1" source="RnDzqMJOInkUyzBkwdKR-10" target="RnDzqMJOInkUyzBkwdKR-37">
          <mxGeometry relative="1" as="geometry" />
        </mxCell>
        <mxCell id="RnDzqMJOInkUyzBkwdKR-10" value="Dashboard" style="rounded=1;whiteSpace=wrap;html=1;" vertex="1" parent="1">
          <mxGeometry x="170" y="240" width="120" height="60" as="geometry" />
        </mxCell>
        <mxCell id="RnDzqMJOInkUyzBkwdKR-21" style="edgeStyle=orthogonalEdgeStyle;rounded=0;orthogonalLoop=1;jettySize=auto;html=1;" edge="1" parent="1" source="RnDzqMJOInkUyzBkwdKR-12">
          <mxGeometry relative="1" as="geometry">
            <mxPoint x="530" y="210" as="targetPoint" />
          </mxGeometry>
        </mxCell>
        <mxCell id="RnDzqMJOInkUyzBkwdKR-12" value="paitent Demography" style="rounded=1;whiteSpace=wrap;html=1;" vertex="1" parent="1">
          <mxGeometry x="350" y="240" width="120" height="60" as="geometry" />
        </mxCell>
        <mxCell id="RnDzqMJOInkUyzBkwdKR-42" style="edgeStyle=orthogonalEdgeStyle;curved=0;rounded=1;sketch=0;orthogonalLoop=1;jettySize=auto;html=1;" edge="1" parent="1" source="RnDzqMJOInkUyzBkwdKR-16">
          <mxGeometry relative="1" as="geometry">
            <mxPoint x="590" y="209.9999999999999" as="targetPoint" />
          </mxGeometry>
        </mxCell>
        <mxCell id="RnDzqMJOInkUyzBkwdKR-16" value="Appointment &amp;amp; scheduling" style="rounded=1;whiteSpace=wrap;html=1;" vertex="1" parent="1">
          <mxGeometry x="540" y="240" width="120" height="60" as="geometry" />
        </mxCell>
        <mxCell id="RnDzqMJOInkUyzBkwdKR-43" style="edgeStyle=orthogonalEdgeStyle;curved=0;rounded=1;sketch=0;orthogonalLoop=1;jettySize=auto;html=1;" edge="1" parent="1" source="RnDzqMJOInkUyzBkwdKR-26">
          <mxGeometry relative="1" as="geometry">
            <mxPoint x="710" y="209.9999999999999" as="targetPoint" />
          </mxGeometry>
        </mxCell>
        <mxCell id="RnDzqMJOInkUyzBkwdKR-26" value="&lt;p class=&quot;MsoListParagraph&quot; style=&quot;margin-left: 0.75in ; text-align: justify ; text-indent: -0.25in&quot;&gt;&lt;span class=&quot;normaltextrun&quot;&gt;&lt;span&gt;Online Payemet&lt;/span&gt;&lt;/span&gt;&lt;/p&gt;" style="rounded=1;whiteSpace=wrap;html=1;sketch=0;" vertex="1" parent="1">
          <mxGeometry x="670" y="240" width="120" height="60" as="geometry" />
        </mxCell>
        <mxCell id="RnDzqMJOInkUyzBkwdKR-44" style="edgeStyle=orthogonalEdgeStyle;curved=0;rounded=1;sketch=0;orthogonalLoop=1;jettySize=auto;html=1;" edge="1" parent="1" source="RnDzqMJOInkUyzBkwdKR-29">
          <mxGeometry relative="1" as="geometry">
            <mxPoint x="890" y="209.9999999999999" as="targetPoint" />
          </mxGeometry>
        </mxCell>
        <mxCell id="RnDzqMJOInkUyzBkwdKR-29" value="Orders" style="rounded=1;whiteSpace=wrap;html=1;sketch=0;" vertex="1" parent="1">
          <mxGeometry x="810" y="260" width="120" height="40" as="geometry" />
        </mxCell>
        <mxCell id="RnDzqMJOInkUyzBkwdKR-45" style="edgeStyle=orthogonalEdgeStyle;curved=0;rounded=1;sketch=0;orthogonalLoop=1;jettySize=auto;html=1;" edge="1" parent="1" source="RnDzqMJOInkUyzBkwdKR-35">
          <mxGeometry relative="1" as="geometry">
            <mxPoint x="1010" y="209.9999999999999" as="targetPoint" />
          </mxGeometry>
        </mxCell>
        <mxCell id="RnDzqMJOInkUyzBkwdKR-35" value="Online Payment" style="rounded=1;whiteSpace=wrap;html=1;sketch=0;" vertex="1" parent="1">
          <mxGeometry x="980" y="240" width="120" height="60" as="geometry" />
        </mxCell>
        <mxCell id="RnDzqMJOInkUyzBkwdKR-40" style="edgeStyle=orthogonalEdgeStyle;curved=0;rounded=1;sketch=0;orthogonalLoop=1;jettySize=auto;html=1;entryX=0;entryY=0.75;entryDx=0;entryDy=0;" edge="1" parent="1" source="RnDzqMJOInkUyzBkwdKR-36" target="RnDzqMJOInkUyzBkwdKR-10">
          <mxGeometry relative="1" as="geometry" />
        </mxCell>
        <mxCell id="RnDzqMJOInkUyzBkwdKR-36" value="Admin&lt;span style=&quot;white-space: pre&quot;&gt;	&lt;/span&gt;" style="rounded=1;whiteSpace=wrap;html=1;sketch=0;" vertex="1" parent="1">
          <mxGeometry x="10" y="360" width="120" height="60" as="geometry" />
        </mxCell>
        <mxCell id="RnDzqMJOInkUyzBkwdKR-37" value="Paitent" style="rounded=1;whiteSpace=wrap;html=1;sketch=0;" vertex="1" parent="1">
          <mxGeometry x="140" y="360" width="120" height="60" as="geometry" />
        </mxCell>
        <mxCell id="RnDzqMJOInkUyzBkwdKR-41" style="edgeStyle=orthogonalEdgeStyle;curved=0;rounded=1;sketch=0;orthogonalLoop=1;jettySize=auto;html=1;entryX=1;entryY=0.75;entryDx=0;entryDy=0;" edge="1" parent="1" source="RnDzqMJOInkUyzBkwdKR-38" target="RnDzqMJOInkUyzBkwdKR-10">
          <mxGeometry relative="1" as="geometry" />
        </mxCell>
        <mxCell id="RnDzqMJOInkUyzBkwdKR-38" value="Physician" style="rounded=1;whiteSpace=wrap;html=1;sketch=0;" vertex="1" parent="1">
          <mxGeometry x="280" y="360" width="120" height="60" as="geometry" />
        </mxCell>
      </root>
    </mxGraphModel>
  </diagram>
</mxfile>
